<mxfile host="app.diagrams.net" modified="2023-11-24T09:00:10.530Z" agent="Mozilla/5.0 (Macintosh; Intel Mac OS X 10_15_7) AppleWebKit/537.36 (KHTML, like Gecko) Chrome/119.0.0.0 Safari/537.36" etag="W4LAsK3hQrdwsPERlIog" version="22.1.3" type="github">
  <diagram name="PaginÄƒ-1" id="4xMoVaFx2DnquvAbO4xz">
    <mxGraphModel dx="1466" dy="936" grid="1" gridSize="10" guides="1" tooltips="1" connect="1" arrows="1" fold="1" page="1" pageScale="1" pageWidth="1920" pageHeight="1200" math="0" shadow="0">
      <root>
        <mxCell id="0" />
        <mxCell id="1" parent="0" />
        <mxCell id="nUgjpErT9T5JklCMchZT-15" value="&lt;span style=&quot;font-size: 20px;&quot;&gt;Call BACKEND&lt;/span&gt;" style="edgeStyle=orthogonalEdgeStyle;rounded=0;orthogonalLoop=1;jettySize=auto;html=1;entryX=0;entryY=0.5;entryDx=0;entryDy=0;fontFamily=Helvetica;fontSize=12;fontColor=default;" edge="1" parent="1" source="nUgjpErT9T5JklCMchZT-1" target="nUgjpErT9T5JklCMchZT-14">
          <mxGeometry relative="1" as="geometry" />
        </mxCell>
        <mxCell id="nUgjpErT9T5JklCMchZT-1" value="&lt;font style=&quot;font-size: 25px;&quot;&gt;Date Conectare&lt;/font&gt;" style="rounded=0;whiteSpace=wrap;html=1;fillColor=#dae8fc;strokeColor=#6c8ebf;" vertex="1" parent="1">
          <mxGeometry x="80" y="40" width="200" height="70" as="geometry" />
        </mxCell>
        <mxCell id="nUgjpErT9T5JklCMchZT-3" value="Form" style="shape=table;startSize=30;container=1;collapsible=0;childLayout=tableLayout;fixedRows=1;rowLines=0;fontStyle=0;strokeColor=default;fontSize=16;rounded=0;align=center;verticalAlign=middle;fontFamily=Helvetica;fontColor=default;fillColor=default;html=1;" vertex="1" parent="1">
          <mxGeometry x="80" y="110" width="200" height="120" as="geometry" />
        </mxCell>
        <mxCell id="nUgjpErT9T5JklCMchZT-4" value="" style="shape=tableRow;horizontal=0;startSize=0;swimlaneHead=0;swimlaneBody=0;top=0;left=0;bottom=0;right=0;collapsible=0;dropTarget=0;fillColor=none;points=[[0,0.5],[1,0.5]];portConstraint=eastwest;strokeColor=inherit;fontSize=16;rounded=0;align=center;verticalAlign=middle;fontFamily=Helvetica;fontColor=default;html=1;" vertex="1" parent="nUgjpErT9T5JklCMchZT-3">
          <mxGeometry y="30" width="200" height="30" as="geometry" />
        </mxCell>
        <mxCell id="nUgjpErT9T5JklCMchZT-5" value="1" style="shape=partialRectangle;html=1;whiteSpace=wrap;connectable=0;fillColor=none;top=0;left=0;bottom=0;right=0;overflow=hidden;pointerEvents=1;strokeColor=inherit;fontSize=16;rounded=0;align=center;verticalAlign=middle;fontFamily=Helvetica;fontColor=default;" vertex="1" parent="nUgjpErT9T5JklCMchZT-4">
          <mxGeometry width="40" height="30" as="geometry">
            <mxRectangle width="40" height="30" as="alternateBounds" />
          </mxGeometry>
        </mxCell>
        <mxCell id="nUgjpErT9T5JklCMchZT-6" value="Nume Firma" style="shape=partialRectangle;html=1;whiteSpace=wrap;connectable=0;fillColor=none;top=0;left=0;bottom=0;right=0;align=left;spacingLeft=6;overflow=hidden;strokeColor=inherit;fontSize=16;rounded=0;verticalAlign=middle;fontFamily=Helvetica;fontColor=default;" vertex="1" parent="nUgjpErT9T5JklCMchZT-4">
          <mxGeometry x="40" width="160" height="30" as="geometry">
            <mxRectangle width="160" height="30" as="alternateBounds" />
          </mxGeometry>
        </mxCell>
        <mxCell id="nUgjpErT9T5JklCMchZT-7" value="" style="shape=tableRow;horizontal=0;startSize=0;swimlaneHead=0;swimlaneBody=0;top=0;left=0;bottom=0;right=0;collapsible=0;dropTarget=0;fillColor=none;points=[[0,0.5],[1,0.5]];portConstraint=eastwest;strokeColor=inherit;fontSize=16;rounded=0;align=center;verticalAlign=middle;fontFamily=Helvetica;fontColor=default;html=1;" vertex="1" parent="nUgjpErT9T5JklCMchZT-3">
          <mxGeometry y="60" width="200" height="30" as="geometry" />
        </mxCell>
        <mxCell id="nUgjpErT9T5JklCMchZT-8" value="2" style="shape=partialRectangle;html=1;whiteSpace=wrap;connectable=0;fillColor=none;top=0;left=0;bottom=0;right=0;overflow=hidden;strokeColor=inherit;fontSize=16;rounded=0;align=center;verticalAlign=middle;fontFamily=Helvetica;fontColor=default;" vertex="1" parent="nUgjpErT9T5JklCMchZT-7">
          <mxGeometry width="40" height="30" as="geometry">
            <mxRectangle width="40" height="30" as="alternateBounds" />
          </mxGeometry>
        </mxCell>
        <mxCell id="nUgjpErT9T5JklCMchZT-9" value="Cui" style="shape=partialRectangle;html=1;whiteSpace=wrap;connectable=0;fillColor=none;top=0;left=0;bottom=0;right=0;align=left;spacingLeft=6;overflow=hidden;strokeColor=inherit;fontSize=16;rounded=0;verticalAlign=middle;fontFamily=Helvetica;fontColor=default;" vertex="1" parent="nUgjpErT9T5JklCMchZT-7">
          <mxGeometry x="40" width="160" height="30" as="geometry">
            <mxRectangle width="160" height="30" as="alternateBounds" />
          </mxGeometry>
        </mxCell>
        <mxCell id="nUgjpErT9T5JklCMchZT-10" value="" style="shape=tableRow;horizontal=0;startSize=0;swimlaneHead=0;swimlaneBody=0;top=0;left=0;bottom=0;right=0;collapsible=0;dropTarget=0;fillColor=none;points=[[0,0.5],[1,0.5]];portConstraint=eastwest;strokeColor=inherit;fontSize=16;rounded=0;align=center;verticalAlign=middle;fontFamily=Helvetica;fontColor=default;html=1;" vertex="1" parent="nUgjpErT9T5JklCMchZT-3">
          <mxGeometry y="90" width="200" height="30" as="geometry" />
        </mxCell>
        <mxCell id="nUgjpErT9T5JklCMchZT-11" value="3" style="shape=partialRectangle;html=1;whiteSpace=wrap;connectable=0;fillColor=none;top=0;left=0;bottom=0;right=0;overflow=hidden;strokeColor=inherit;fontSize=16;rounded=0;align=center;verticalAlign=middle;fontFamily=Helvetica;fontColor=default;" vertex="1" parent="nUgjpErT9T5JklCMchZT-10">
          <mxGeometry width="40" height="30" as="geometry">
            <mxRectangle width="40" height="30" as="alternateBounds" />
          </mxGeometry>
        </mxCell>
        <mxCell id="nUgjpErT9T5JklCMchZT-12" value="Email Admin" style="shape=partialRectangle;html=1;whiteSpace=wrap;connectable=0;fillColor=none;top=0;left=0;bottom=0;right=0;align=left;spacingLeft=6;overflow=hidden;strokeColor=inherit;fontSize=16;rounded=0;verticalAlign=middle;fontFamily=Helvetica;fontColor=default;" vertex="1" parent="nUgjpErT9T5JklCMchZT-10">
          <mxGeometry x="40" width="160" height="30" as="geometry">
            <mxRectangle width="160" height="30" as="alternateBounds" />
          </mxGeometry>
        </mxCell>
        <mxCell id="nUgjpErT9T5JklCMchZT-17" value="&lt;font style=&quot;font-size: 20px;&quot;&gt;Verifica datele Companiei&lt;/font&gt;" style="edgeStyle=orthogonalEdgeStyle;rounded=0;orthogonalLoop=1;jettySize=auto;html=1;entryX=0.5;entryY=0;entryDx=0;entryDy=0;fontFamily=Helvetica;fontSize=12;fontColor=default;" edge="1" parent="1" source="nUgjpErT9T5JklCMchZT-14" target="nUgjpErT9T5JklCMchZT-16">
          <mxGeometry relative="1" as="geometry" />
        </mxCell>
        <mxCell id="nUgjpErT9T5JklCMchZT-14" value="&lt;font style=&quot;font-size: 25px;&quot;&gt;RegisterCompanie&lt;/font&gt;" style="ellipse;whiteSpace=wrap;html=1;rounded=0;strokeColor=#6c8ebf;align=center;verticalAlign=middle;fontFamily=Helvetica;fontSize=12;fontColor=default;fillColor=#dae8fc;" vertex="1" parent="1">
          <mxGeometry x="762" y="35" width="256" height="80" as="geometry" />
        </mxCell>
        <mxCell id="nUgjpErT9T5JklCMchZT-18" value="&lt;span style=&quot;font-size: 20px;&quot;&gt;Nu exista cui&lt;br&gt;Companie deja inregistrata&lt;br&gt;Inregistrare incompleta&lt;br&gt;&lt;/span&gt;" style="edgeStyle=orthogonalEdgeStyle;rounded=0;orthogonalLoop=1;jettySize=auto;html=1;exitX=0.5;exitY=0;exitDx=0;exitDy=0;entryX=1;entryY=0.75;entryDx=0;entryDy=0;fontFamily=Helvetica;fontSize=12;fontColor=default;exitPerimeter=0;" edge="1" parent="1" source="nUgjpErT9T5JklCMchZT-19" target="nUgjpErT9T5JklCMchZT-1">
          <mxGeometry x="-0.2966" relative="1" as="geometry">
            <mxPoint x="420" y="370" as="sourcePoint" />
            <mxPoint x="300" y="92.5" as="targetPoint" />
            <Array as="points">
              <mxPoint x="427" y="93" />
            </Array>
            <mxPoint as="offset" />
          </mxGeometry>
        </mxCell>
        <mxCell id="nUgjpErT9T5JklCMchZT-28" value="&lt;span style=&quot;color: rgb(0, 0, 0); font-family: Helvetica; font-style: normal; font-variant-ligatures: normal; font-variant-caps: normal; font-weight: 400; letter-spacing: normal; orphans: 2; text-align: center; text-indent: 0px; text-transform: none; widows: 2; word-spacing: 0px; -webkit-text-stroke-width: 0px; background-color: rgb(251, 251, 251); text-decoration-thickness: initial; text-decoration-style: initial; text-decoration-color: initial; float: none; display: inline !important;&quot;&gt;&lt;font style=&quot;font-size: 20px;&quot;&gt;Cauta user dupa email&lt;/font&gt;&lt;/span&gt;" style="edgeStyle=orthogonalEdgeStyle;rounded=0;orthogonalLoop=1;jettySize=auto;html=1;exitX=1;exitY=0.5;exitDx=0;exitDy=0;entryX=0;entryY=0.5;entryDx=0;entryDy=0;fontFamily=Helvetica;fontSize=12;fontColor=default;" edge="1" parent="1" source="nUgjpErT9T5JklCMchZT-16" target="nUgjpErT9T5JklCMchZT-27">
          <mxGeometry relative="1" as="geometry" />
        </mxCell>
        <mxCell id="nUgjpErT9T5JklCMchZT-16" value="&lt;font style=&quot;font-size: 25px;&quot;&gt;VerificareDate&lt;br&gt;Companie&lt;/font&gt;" style="rounded=1;whiteSpace=wrap;html=1;strokeColor=#6c8ebf;align=center;verticalAlign=middle;fontFamily=Helvetica;fontSize=12;fontColor=default;fillColor=#dae8fc;" vertex="1" parent="1">
          <mxGeometry x="770" y="310" width="240" height="120" as="geometry" />
        </mxCell>
        <mxCell id="nUgjpErT9T5JklCMchZT-20" value="" style="edgeStyle=orthogonalEdgeStyle;rounded=0;orthogonalLoop=1;jettySize=auto;html=1;exitX=0.5;exitY=1;exitDx=0;exitDy=0;entryX=1;entryY=0.5;entryDx=0;entryDy=0;fontFamily=Helvetica;fontSize=12;fontColor=default;entryPerimeter=0;" edge="1" parent="1" source="nUgjpErT9T5JklCMchZT-16" target="nUgjpErT9T5JklCMchZT-19">
          <mxGeometry relative="1" as="geometry">
            <mxPoint x="668" y="370" as="sourcePoint" />
            <mxPoint x="280" y="93" as="targetPoint" />
            <Array as="points">
              <mxPoint x="890" y="490" />
            </Array>
          </mxGeometry>
        </mxCell>
        <mxCell id="nUgjpErT9T5JklCMchZT-21" value="&lt;font style=&quot;font-size: 20px;&quot;&gt;Exista CUI?&lt;/font&gt;" style="edgeLabel;html=1;align=center;verticalAlign=middle;resizable=0;points=[];fontSize=12;fontFamily=Helvetica;fontColor=default;" vertex="1" connectable="0" parent="nUgjpErT9T5JklCMchZT-20">
          <mxGeometry x="-0.0777" y="-2" relative="1" as="geometry">
            <mxPoint x="14" y="2" as="offset" />
          </mxGeometry>
        </mxCell>
        <mxCell id="nUgjpErT9T5JklCMchZT-23" value="&lt;font style=&quot;font-size: 20px;&quot;&gt;Cui Existent&lt;/font&gt;" style="edgeStyle=orthogonalEdgeStyle;rounded=0;orthogonalLoop=1;jettySize=auto;html=1;exitX=1;exitY=0;exitDx=0;exitDy=127.5;exitPerimeter=0;fontFamily=Helvetica;fontSize=12;fontColor=default;" edge="1" parent="1" source="nUgjpErT9T5JklCMchZT-19">
          <mxGeometry x="-0.1856" relative="1" as="geometry">
            <mxPoint x="880" y="610" as="targetPoint" />
            <mxPoint as="offset" />
          </mxGeometry>
        </mxCell>
        <mxCell id="nUgjpErT9T5JklCMchZT-19" value="&lt;font style=&quot;font-size: 25px;&quot;&gt;Baza de Date&lt;/font&gt;" style="shape=cylinder3;whiteSpace=wrap;html=1;boundedLbl=1;backgroundOutline=1;size=15;rounded=0;strokeColor=#6c8ebf;align=center;verticalAlign=middle;fontFamily=Helvetica;fontSize=12;fontColor=default;fillColor=#dae8fc;" vertex="1" parent="1">
          <mxGeometry x="360" y="400" width="135" height="180" as="geometry" />
        </mxCell>
        <mxCell id="nUgjpErT9T5JklCMchZT-24" value="&lt;span style=&quot;font-size: 25px;&quot;&gt;Adauga Numele&lt;/span&gt;" style="rounded=1;whiteSpace=wrap;html=1;strokeColor=#6c8ebf;align=center;verticalAlign=middle;fontFamily=Helvetica;fontSize=12;fontColor=default;fillColor=#dae8fc;" vertex="1" parent="1">
          <mxGeometry x="762" y="610" width="240" height="120" as="geometry" />
        </mxCell>
        <mxCell id="nUgjpErT9T5JklCMchZT-25" value="&lt;font style=&quot;font-size: 20px;&quot;&gt;Adauga Numele IN DB&lt;/font&gt;" style="edgeStyle=orthogonalEdgeStyle;rounded=0;orthogonalLoop=1;jettySize=auto;html=1;exitX=0;exitY=0.5;exitDx=0;exitDy=0;entryX=0.5;entryY=1;entryDx=0;entryDy=0;entryPerimeter=0;fontFamily=Helvetica;fontSize=12;fontColor=default;" edge="1" parent="1" source="nUgjpErT9T5JklCMchZT-24" target="nUgjpErT9T5JklCMchZT-19">
          <mxGeometry relative="1" as="geometry" />
        </mxCell>
        <mxCell id="nUgjpErT9T5JklCMchZT-26" style="edgeStyle=orthogonalEdgeStyle;rounded=0;orthogonalLoop=1;jettySize=auto;html=1;exitX=0.75;exitY=0;exitDx=0;exitDy=0;entryX=0.713;entryY=1.021;entryDx=0;entryDy=0;entryPerimeter=0;fontFamily=Helvetica;fontSize=12;fontColor=default;" edge="1" parent="1" source="nUgjpErT9T5JklCMchZT-24" target="nUgjpErT9T5JklCMchZT-16">
          <mxGeometry relative="1" as="geometry" />
        </mxCell>
        <mxCell id="nUgjpErT9T5JklCMchZT-30" value="&lt;font style=&quot;font-size: 20px;&quot;&gt;Cu datele Userului Se creaza un rol pentru firma&lt;/font&gt;" style="edgeStyle=orthogonalEdgeStyle;rounded=0;orthogonalLoop=1;jettySize=auto;html=1;exitX=1;exitY=1;exitDx=0;exitDy=0;entryX=0.5;entryY=0;entryDx=0;entryDy=0;fontFamily=Helvetica;fontSize=12;fontColor=default;" edge="1" parent="1" source="nUgjpErT9T5JklCMchZT-16" target="nUgjpErT9T5JklCMchZT-29">
          <mxGeometry relative="1" as="geometry" />
        </mxCell>
        <mxCell id="nUgjpErT9T5JklCMchZT-31" style="edgeStyle=orthogonalEdgeStyle;rounded=0;orthogonalLoop=1;jettySize=auto;html=1;exitX=0;exitY=0.75;exitDx=0;exitDy=0;entryX=1;entryY=0.75;entryDx=0;entryDy=0;fontFamily=Helvetica;fontSize=12;fontColor=default;" edge="1" parent="1" source="nUgjpErT9T5JklCMchZT-27" target="nUgjpErT9T5JklCMchZT-16">
          <mxGeometry relative="1" as="geometry" />
        </mxCell>
        <mxCell id="nUgjpErT9T5JklCMchZT-27" value="&lt;span style=&quot;font-size: 25px;&quot;&gt;getUserByEmail&lt;/span&gt;" style="rounded=1;whiteSpace=wrap;html=1;strokeColor=#6c8ebf;align=center;verticalAlign=middle;fontFamily=Helvetica;fontSize=12;fontColor=default;fillColor=#dae8fc;" vertex="1" parent="1">
          <mxGeometry x="1360" y="310" width="240" height="120" as="geometry" />
        </mxCell>
        <mxCell id="nUgjpErT9T5JklCMchZT-29" value="&lt;span style=&quot;font-size: 25px;&quot;&gt;Rol Builder&lt;/span&gt;" style="rounded=1;whiteSpace=wrap;html=1;strokeColor=#6c8ebf;align=center;verticalAlign=middle;fontFamily=Helvetica;fontSize=12;fontColor=default;fillColor=#dae8fc;" vertex="1" parent="1">
          <mxGeometry x="1360" y="610" width="240" height="120" as="geometry" />
        </mxCell>
        <mxCell id="nUgjpErT9T5JklCMchZT-34" value="&lt;span style=&quot;font-size: 25px;&quot;&gt;Verificare Mail&lt;/span&gt;" style="rounded=0;whiteSpace=wrap;html=1;fillColor=#dae8fc;strokeColor=#6c8ebf;" vertex="1" parent="1">
          <mxGeometry x="90" y="880" width="200" height="70" as="geometry" />
        </mxCell>
      </root>
    </mxGraphModel>
  </diagram>
</mxfile>
